HIERARCHY
ROOT mixamorig:Hips
{
	OFFSET -0.000008 104.274872 1.554316
	CHANNELS 6 Xposition Yposition Zposition Xrotation Yrotation Zrotation
	JOINT mixamorig:Spine
	{
		OFFSET -0.000005 10.181595 0.131519
		CHANNELS 6 Xposition Yposition Zposition Xrotation Yrotation Zrotation
		JOINT mixamorig:Spine1
		{
			OFFSET -0.000000 9.893959 -1.470707
			CHANNELS 6 Xposition Yposition Zposition Xrotation Yrotation Zrotation
			JOINT mixamorig:Spine2
			{
				OFFSET -0.000000 9.220757 -1.370641
				CHANNELS 6 Xposition Yposition Zposition Xrotation Yrotation Zrotation
				JOINT mixamorig:Neck
				{
					OFFSET 0.000001 16.740417 -2.049036
					CHANNELS 6 Xposition Yposition Zposition Xrotation Yrotation Zrotation
					JOINT mixamorig:Head
					{
						OFFSET 0.000000 9.617874 1.685006
						CHANNELS 6 Xposition Yposition Zposition Xrotation Yrotation Zrotation
						JOINT mixamorig:HeadTop_End
						{
							OFFSET 0.000002 22.037354 7.501101
							CHANNELS 6 Xposition Yposition Zposition Xrotation Yrotation Zrotation
							End Site
							{
								OFFSET 0.000168 2310.654297 -282.823242
							}
						}
					}
				}
				JOINT mixamorig:RightShoulder
				{
					OFFSET -4.569970 11.014908 -2.160885
					CHANNELS 6 Xposition Yposition Zposition Xrotation Yrotation Zrotation
					JOINT mixamorig:RightArm
					{
						OFFSET -10.592851 -0.524811 -2.232101
						CHANNELS 6 Xposition Yposition Zposition Xrotation Yrotation Zrotation
						JOINT mixamorig:RightForeArm
						{
							OFFSET -27.841511 0.000031 -0.000004
							CHANNELS 6 Xposition Yposition Zposition Xrotation Yrotation Zrotation
							JOINT mixamorig:RightHand
							{
								OFFSET -28.328831 -0.000015 0.000015
								CHANNELS 6 Xposition Yposition Zposition Xrotation Yrotation Zrotation
								JOINT mixamorig:RightHandThumb1
								{
									OFFSET -2.464806 -1.573990 2.681852
									CHANNELS 6 Xposition Yposition Zposition Xrotation Yrotation Zrotation
									JOINT mixamorig:RightHandThumb2
									{
										OFFSET -3.215179 -1.872803 1.924282
										CHANNELS 6 Xposition Yposition Zposition Xrotation Yrotation Zrotation
										JOINT mixamorig:RightHandThumb3
										{
											OFFSET -2.654831 -1.527969 1.512609
											CHANNELS 6 Xposition Yposition Zposition Xrotation Yrotation Zrotation
											JOINT mixamorig:RightHandThumb4
											{
												OFFSET -2.018814 -1.152008 1.108052
												CHANNELS 6 Xposition Yposition Zposition Xrotation Yrotation Zrotation
												End Site
												{
													OFFSET -188.809540 -114.533607 132.431396
												}
											}
										}
									}
								}
								JOINT mixamorig:RightHandIndex1
								{
									OFFSET -9.108284 -0.517868 2.259835
									CHANNELS 6 Xposition Yposition Zposition Xrotation Yrotation Zrotation
									JOINT mixamorig:RightHandIndex2
									{
										OFFSET -3.699989 0.000000 0.001215
										CHANNELS 6 Xposition Yposition Zposition Xrotation Yrotation Zrotation
										JOINT mixamorig:RightHandIndex3
										{
											OFFSET -2.850006 0.000031 -0.000522
											CHANNELS 6 Xposition Yposition Zposition Xrotation Yrotation Zrotation
											JOINT mixamorig:RightHandIndex4
											{
												OFFSET -2.772186 -0.000015 -0.000020
												CHANNELS 6 Xposition Yposition Zposition Xrotation Yrotation Zrotation
												End Site
												{
													OFFSET -277.218445 0.000000 -0.050231
												}
											}
										}
									}
								}
								JOINT mixamorig:RightHandMiddle1
								{
									OFFSET -9.532516 -0.000031 -0.000023
									CHANNELS 6 Xposition Yposition Zposition Xrotation Yrotation Zrotation
									JOINT mixamorig:RightHandMiddle2
									{
										OFFSET -3.700005 -0.000015 0.003713
										CHANNELS 6 Xposition Yposition Zposition Xrotation Yrotation Zrotation
										JOINT mixamorig:RightHandMiddle3
										{
											OFFSET -2.949974 0.000015 -0.002054
											CHANNELS 6 Xposition Yposition Zposition Xrotation Yrotation Zrotation
											JOINT mixamorig:RightHandMiddle4
											{
												OFFSET -2.946640 0.000000 -0.000156
												CHANNELS 6 Xposition Yposition Zposition Xrotation Yrotation Zrotation
												End Site
												{
													OFFSET -294.664337 0.000000 -0.113670
												}
											}
										}
									}
								}
								JOINT mixamorig:RightHandRing1
								{
									OFFSET -9.103600 -0.043076 -1.865134
									CHANNELS 6 Xposition Yposition Zposition Xrotation Yrotation Zrotation
									JOINT mixamorig:RightHandRing2
									{
										OFFSET -3.379288 0.000000 -0.001055
										CHANNELS 6 Xposition Yposition Zposition Xrotation Yrotation Zrotation
										JOINT mixamorig:RightHandRing3
										{
											OFFSET -2.889687 -0.000015 0.000379
											CHANNELS 6 Xposition Yposition Zposition Xrotation Yrotation Zrotation
											JOINT mixamorig:RightHandRing4
											{
												OFFSET -2.638809 -0.000015 0.000941
												CHANNELS 6 Xposition Yposition Zposition Xrotation Yrotation Zrotation
												End Site
												{
													OFFSET -263.880371 0.000000 0.516020
												}
											}
										}
									}
								}
								JOINT mixamorig:RightHandPinky1
								{
									OFFSET -8.076683 -0.486710 -3.806280
									CHANNELS 6 Xposition Yposition Zposition Xrotation Yrotation Zrotation
									JOINT mixamorig:RightHandPinky2
									{
										OFFSET -3.600014 -0.000015 -0.003747
										CHANNELS 6 Xposition Yposition Zposition Xrotation Yrotation Zrotation
										JOINT mixamorig:RightHandPinky3
										{
											OFFSET -2.099983 0.000000 -0.005739
											CHANNELS 6 Xposition Yposition Zposition Xrotation Yrotation Zrotation
											JOINT mixamorig:RightHandPinky4
											{
												OFFSET -2.115768 -0.000031 -0.003680
												CHANNELS 6 Xposition Yposition Zposition Xrotation Yrotation Zrotation
												End Site
												{
													OFFSET -211.577087 0.000000 -0.350686
												}
											}
										}
									}
								}
							}
						}
					}
				}
				JOINT mixamorig:LeftShoulder
				{
					OFFSET 4.570447 11.014725 -2.160855
					CHANNELS 6 Xposition Yposition Zposition Xrotation Yrotation Zrotation
					JOINT mixamorig:LeftArm
					{
						OFFSET 10.592371 -0.524597 -2.232119
						CHANNELS 6 Xposition Yposition Zposition Xrotation Yrotation Zrotation
						JOINT mixamorig:LeftForeArm
						{
							OFFSET 27.841532 -0.000031 0.000026
							CHANNELS 6 Xposition Yposition Zposition Xrotation Yrotation Zrotation
							JOINT mixamorig:LeftHand
							{
								OFFSET 28.328846 -0.000061 0.000022
								CHANNELS 6 Xposition Yposition Zposition Xrotation Yrotation Zrotation
								JOINT mixamorig:LeftHandThumb1
								{
									OFFSET 2.466141 -1.576172 2.681732
									CHANNELS 6 Xposition Yposition Zposition Xrotation Yrotation Zrotation
									JOINT mixamorig:LeftHandThumb2
									{
										OFFSET 3.217812 -1.872070 1.916482
										CHANNELS 6 Xposition Yposition Zposition Xrotation Yrotation Zrotation
										JOINT mixamorig:LeftHandThumb3
										{
											OFFSET 2.656029 -1.528778 1.514513
											CHANNELS 6 Xposition Yposition Zposition Xrotation Yrotation Zrotation
											JOINT mixamorig:LeftHandThumb4
											{
												OFFSET 2.020889 -1.154053 1.115139
												CHANNELS 6 Xposition Yposition Zposition Xrotation Yrotation Zrotation
												End Site
												{
													OFFSET 190.885437 -115.081749 130.048782
												}
											}
										}
									}
								}
								JOINT mixamorig:LeftHandIndex1
								{
									OFFSET 9.109314 -0.518021 2.259871
									CHANNELS 6 Xposition Yposition Zposition Xrotation Yrotation Zrotation
									JOINT mixamorig:LeftHandIndex2
									{
										OFFSET 3.699989 0.000000 -0.000322
										CHANNELS 6 Xposition Yposition Zposition Xrotation Yrotation Zrotation
										JOINT mixamorig:LeftHandIndex3
										{
											OFFSET 2.850006 0.000000 0.000352
											CHANNELS 6 Xposition Yposition Zposition Xrotation Yrotation Zrotation
											JOINT mixamorig:LeftHandIndex4
											{
												OFFSET 2.774864 -0.000031 -0.000027
												CHANNELS 6 Xposition Yposition Zposition Xrotation Yrotation Zrotation
												End Site
												{
													OFFSET 277.486267 0.000000 -0.009857
												}
											}
										}
									}
								}
								JOINT mixamorig:LeftHandMiddle1
								{
									OFFSET 9.533394 0.000061 0.000044
									CHANNELS 6 Xposition Yposition Zposition Xrotation Yrotation Zrotation
									JOINT mixamorig:LeftHandMiddle2
									{
										OFFSET 3.699989 -0.000015 -0.000231
										CHANNELS 6 Xposition Yposition Zposition Xrotation Yrotation Zrotation
										JOINT mixamorig:LeftHandMiddle3
										{
											OFFSET 2.949997 -0.000015 -0.000059
											CHANNELS 6 Xposition Yposition Zposition Xrotation Yrotation Zrotation
											JOINT mixamorig:LeftHandMiddle4
											{
												OFFSET 2.952896 0.000031 0.000063
												CHANNELS 6 Xposition Yposition Zposition Xrotation Yrotation Zrotation
												End Site
												{
													OFFSET 295.289337 0.000000 0.022810
												}
											}
										}
									}
								}
								JOINT mixamorig:LeftHandRing1
								{
									OFFSET 9.104523 -0.042999 -1.865074
									CHANNELS 6 Xposition Yposition Zposition Xrotation Yrotation Zrotation
									JOINT mixamorig:LeftHandRing2
									{
										OFFSET 3.150009 -0.000031 0.000043
										CHANNELS 6 Xposition Yposition Zposition Xrotation Yrotation Zrotation
										JOINT mixamorig:LeftHandRing3
										{
											OFFSET 2.949982 -0.000015 0.000040
											CHANNELS 6 Xposition Yposition Zposition Xrotation Yrotation Zrotation
											JOINT mixamorig:LeftHandRing4
											{
												OFFSET 2.644348 0.000000 0.000057
												CHANNELS 6 Xposition Yposition Zposition Xrotation Yrotation Zrotation
												End Site
												{
													OFFSET 264.434631 0.000000 0.012105
												}
											}
										}
									}
								}
								JOINT mixamorig:LeftHandPinky1
								{
									OFFSET 8.077789 -0.486847 -3.806259
									CHANNELS 6 Xposition Yposition Zposition Xrotation Yrotation Zrotation
									JOINT mixamorig:LeftHandPinky2
									{
										OFFSET 3.599953 0.000031 0.014727
										CHANNELS 6 Xposition Yposition Zposition Xrotation Yrotation Zrotation
										JOINT mixamorig:LeftHandPinky3
										{
											OFFSET 2.100021 0.000015 0.007705
											CHANNELS 6 Xposition Yposition Zposition Xrotation Yrotation Zrotation
											JOINT mixamorig:LeftHandPinky4
											{
												OFFSET 2.125504 0.000031 0.007517
												CHANNELS 6 Xposition Yposition Zposition Xrotation Yrotation Zrotation
												End Site
												{
													OFFSET 212.550781 0.000000 0.625752
												}
											}
										}
									}
								}
							}
						}
					}
				}
			}
		}
	}
	JOINT mixamorig:RightUpLeg
	{
		OFFSET -8.207787 -6.751648 -1.599560
		CHANNELS 6 Xposition Yposition Zposition Xrotation Yrotation Zrotation
		JOINT mixamorig:RightLeg
		{
			OFFSET -0.000002 -44.370117 0.345942
			CHANNELS 6 Xposition Yposition Zposition Xrotation Yrotation Zrotation
			JOINT mixamorig:RightFoot
			{
				OFFSET 0.000003 -44.423679 -3.043532
				CHANNELS 6 Xposition Yposition Zposition Xrotation Yrotation Zrotation
				JOINT mixamorig:RightToeBase
				{
					OFFSET -0.000002 -8.728671 10.710558
					CHANNELS 6 Xposition Yposition Zposition Xrotation Yrotation Zrotation
					JOINT mixamorig:RightToe_End
					{
						OFFSET -0.000001 -0.000679 9.278119
						CHANNELS 6 Xposition Yposition Zposition Xrotation Yrotation Zrotation
						End Site
						{
							OFFSET 0.000000 -0.067690 927.812134
						}
					}
				}
			}
		}
	}
	JOINT mixamorig:LeftUpLeg
	{
		OFFSET 8.207793 -6.751686 -1.599556
		CHANNELS 6 Xposition Yposition Zposition Xrotation Yrotation Zrotation
		JOINT mixamorig:LeftLeg
		{
			OFFSET -0.000004 -44.370014 0.346954
			CHANNELS 6 Xposition Yposition Zposition Xrotation Yrotation Zrotation
			JOINT mixamorig:LeftFoot
			{
				OFFSET -0.000001 -44.423672 -3.044401
				CHANNELS 6 Xposition Yposition Zposition Xrotation Yrotation Zrotation
				JOINT mixamorig:LeftToeBase
				{
					OFFSET -0.000002 -8.728669 10.710558
					CHANNELS 6 Xposition Yposition Zposition Xrotation Yrotation Zrotation
					JOINT mixamorig:LeftToe_End
					{
						OFFSET -0.000003 -0.000679 9.278133
						CHANNELS 6 Xposition Yposition Zposition Xrotation Yrotation Zrotation
						End Site
						{
							OFFSET 0.000000 -0.068021 927.813477
						}
					}
				}
			}
		}
	}
}
MOTION
Frames: 3
Frame Time: 0.033333
0.000006 104.270477 1.554256 0.000010 0.000003 -0.000113 -0.000005 10.181587 0.131522 0.000001 -0.000003 0.000084 -0.000000 9.893967 -1.470711 0.000001 0.000000 -0.000000 -0.000000 9.220802 -1.370642 0.000000 -0.000000 -0.000000 0.000001 16.740433 -2.049030 0.000000 -0.000000 -0.000000 0.000000 9.617859 1.685014 0.000000 0.000000 0.000000 0.000002 22.037384 7.501101 0.000000 -0.000000 0.000000 -4.569968 11.014880 -2.160881 0.000008 0.000001 -0.000038 -10.592857 -0.524804 -2.231850 73.552367 41.621571 -31.718620 -27.841515 0.000004 0.000549 -47.599175 105.485817 60.214818 -28.328810 0.000008 0.000032 -0.000325 -0.000043 0.000005 -2.464429 -1.573761 2.682323 -49.804933 -168.679813 -15.110052 -3.215276 -1.872580 1.924639 151.230948 31.720102 7.774399 -2.654960 -1.527865 1.513054 144.199405 27.894691 -31.289056 -2.018826 -1.152001 1.108075 -0.000003 -0.000002 -0.000001 -9.108376 -0.517550 2.260111 96.449443 16.144469 -18.094231 -3.700069 0.000318 0.001506 93.370353 13.516538 -14.302714 -2.850095 0.000368 -0.000273 93.406696 11.628773 -12.335277 -2.772166 0.000000 -0.000024 0.000001 0.000002 0.000001 -9.532586 0.000270 0.000208 87.335730 15.793738 -15.220166 -3.700060 0.000334 0.003948 89.662359 10.781146 -10.625484 -2.950059 0.000314 -0.001800 92.413962 11.928051 -12.430114 -2.946642 0.000014 -0.000163 -0.000004 0.000000 0.000001 -9.103706 -0.042771 -1.864889 85.252741 17.706652 -16.275417 -3.379338 0.000308 -0.000847 88.684713 7.646322 -7.489781 -2.889751 0.000350 0.000641 95.432626 6.143984 -6.804175 -2.638813 -0.000015 0.000941 -0.000001 -0.000001 0.000002 -8.076747 -0.486407 -3.806062 79.831183 18.353826 -15.265183 -3.600062 0.000283 -0.003547 83.608714 7.681186 -6.556023 -2.100014 0.000301 -0.005523 85.386613 4.571210 -4.018167 -2.115773 -0.000038 -0.003676 0.000003 -0.000001 -0.000007 4.570446 11.014691 -2.160851 -0.000018 0.000010 -0.000021 10.592537 -0.524541 -2.232396 74.750027 -67.404138 53.995606 27.841713 -0.000078 -0.000109 268.589048 -75.967864 282.659237 28.328831 -0.000029 0.000023 0.000020 -0.000088 0.000000 2.466165 -1.576156 2.681831 -20.333482 -19.650077 10.736145 3.217827 -1.871951 1.916569 135.562453 182.280523 192.155488 2.656079 -1.528709 1.514628 302.520389 2.167340 15.762849 2.020894 -1.154052 1.115156 -0.000001 0.000003 0.000008 9.109301 -0.517638 2.260020 207.123328 -1.453986 354.016573 3.699831 0.000359 -0.000155 26.696983 -168.175308 132.817837 2.849849 0.000341 0.000525 -152.373912 -13.381801 -51.013607 2.774890 -0.000029 -0.000015 0.000001 -0.000001 -0.000001 9.533460 0.000349 0.000201 214.899307 4.797952 375.208983 3.699964 0.000376 -0.000065 212.415386 -3.472056 -11.898828 2.949904 0.000322 0.000135 -142.690056 -10.133257 -29.433805 2.952867 -0.000016 0.000071 0.000001 -0.000002 -0.000000 9.104559 -0.042698 -1.864891 220.616654 1.574447 364.248251 3.150026 0.000313 0.000220 220.287084 3.591173 9.765209 2.949953 0.000339 0.000219 -139.148070 -1.658843 -4.456160 2.644317 0.000015 0.000045 0.000000 0.000000 0.000000 8.077810 -0.486562 -3.806077 221.664473 3.978268 369.090883 3.600059 0.000198 0.014873 401.323365 162.755307 222.434126 2.100080 0.000210 0.007848 -141.672562 15.078478 40.269317 2.125501 -0.000028 0.007505 0.000000 0.000001 -0.000002 -8.207786 -6.751667 -1.599560 -0.077001 -0.000003 0.000080 -0.000002 -44.370110 0.345938 0.153719 -0.000000 -0.000000 0.000000 -44.423679 -3.043532 -0.076700 0.000000 -0.000002 -0.000006 -8.728667 10.710559 -0.000009 -0.000000 -0.000000 -0.000001 -0.000679 9.278123 0.000000 -0.000000 -0.000000 8.207792 -6.751710 -1.599556 -0.074518 -0.000003 0.000081 -0.000002 -44.370014 0.346960 0.148822 0.000002 0.000000 -0.000001 -44.423664 -3.044403 -0.074314 0.000000 -0.000002 -0.000004 -8.728671 10.710558 0.000007 -0.000000 -0.000000 0.000000 -0.000680 9.278137 -0.000000 0.000000 -0.000001 
0.000006 104.270477 1.554256 0.000010 0.000003 -0.000113 -0.000005 10.181587 0.131522 0.000001 -0.000003 0.000084 -0.000000 9.893967 -1.470711 0.000001 0.000000 -0.000000 -0.000000 9.220802 -1.370642 0.000000 -0.000000 -0.000000 0.000001 16.740433 -2.049030 0.000000 -0.000000 -0.000000 0.000000 9.617859 1.685014 0.000000 0.000000 0.000000 0.000002 22.037384 7.501101 0.000000 -0.000000 0.000000 -4.569968 11.014880 -2.160881 0.000008 0.000001 -0.000038 -10.592862 -0.524796 -2.231844 73.463350 39.984115 -30.378363 -27.841515 -0.000001 0.000568 -47.710920 105.535527 60.390975 -28.328829 0.000022 0.000035 -0.000320 -0.000044 0.000007 -2.464427 -1.573744 2.682330 -49.577765 -168.016643 -14.434918 -3.215276 -1.872538 1.924644 151.066217 32.060997 10.452633 -2.654966 -1.527867 1.513055 145.278752 27.822967 -30.153304 -2.018826 -1.152019 1.108059 -0.000003 0.000007 0.000002 -9.108379 -0.517550 2.260110 95.991909 15.659838 -17.415821 -3.700079 0.000337 0.001482 93.891523 12.949019 -13.826199 -2.850093 0.000367 -0.000259 93.981812 11.289164 -12.095478 -2.772159 -0.000016 -0.000015 0.000003 0.000003 0.000001 -9.532593 0.000270 0.000211 86.927988 15.711913 -15.035553 -3.700064 0.000323 0.003944 89.713271 10.260183 -10.117044 -2.950062 0.000326 -0.001820 92.994030 11.407055 -12.007454 -2.946635 0.000013 -0.000160 0.000000 0.000000 -0.000002 -9.103698 -0.042757 -1.864889 85.629658 17.497930 -16.187796 -3.379316 0.000326 -0.000842 88.655459 7.041233 -6.894690 -2.889737 0.000361 0.000611 95.994743 5.600444 -6.267814 -2.638807 -0.000021 0.000942 -0.000002 0.000000 0.000005 -8.076753 -0.486392 -3.806064 79.091432 18.124276 -14.877460 -3.600030 0.000282 -0.003549 83.545344 7.311393 -6.219741 -2.099985 0.000325 -0.005511 86.365529 4.244881 -3.782237 -2.115775 -0.000053 -0.003680 0.000003 -0.000001 -0.000000 4.570446 11.014691 -2.160851 -0.000018 0.000010 -0.000021 10.592536 -0.524534 -2.232399 75.745227 -66.958639 54.438384 27.841700 -0.000057 -0.000097 269.082515 -75.396805 283.713627 28.328840 -0.000030 0.000022 0.000018 -0.000088 -0.000000 2.466164 -1.576150 2.681846 -24.887763 -21.875230 11.651129 3.217846 -1.871940 1.916598 127.146130 176.849758 194.443888 2.656073 -1.528747 1.514663 299.858173 5.741579 16.947907 2.020887 -1.154079 1.115153 -0.000001 0.000000 0.000001 9.109253 -0.517650 2.260016 205.258400 -4.896466 338.427595 3.699811 0.000300 -0.000160 25.423130 -166.643666 125.113657 2.849811 0.000347 0.000520 -154.825444 -14.127037 -58.052080 2.774879 -0.000044 -0.000033 0.000002 -0.000000 0.000000 9.533399 0.000388 0.000211 213.341136 -0.771107 357.448661 3.699912 0.000391 -0.000069 211.271193 -7.010797 -24.685939 2.949896 0.000338 0.000139 -146.157183 -9.504505 -30.571896 2.952873 -0.000014 0.000052 0.000001 -0.000000 -0.000000 9.104510 -0.042657 -1.864897 219.136729 -3.142226 351.171389 3.149956 0.000398 0.000233 217.834007 -4.588602 -13.339697 2.949934 0.000383 0.000215 -143.311343 -5.256613 -15.767970 2.644329 0.000014 0.000062 -0.000000 0.000001 -0.000001 8.077765 -0.486547 -3.806080 221.749946 -2.322110 352.773806 3.599977 0.000367 0.014905 398.197515 176.931747 187.542624 2.100021 0.000357 0.007889 -142.882981 2.433657 5.966827 2.125508 -0.000016 0.007518 -0.000001 0.000000 0.000001 -8.207786 -6.751667 -1.599560 -0.077001 -0.000003 0.000080 -0.000002 -44.370110 0.345938 0.153719 -0.000000 -0.000000 0.000000 -44.423679 -3.043532 -0.076700 0.000000 -0.000002 -0.000006 -8.728667 10.710559 -0.000009 -0.000000 -0.000000 -0.000001 -0.000679 9.278123 0.000000 -0.000000 -0.000000 8.207792 -6.751710 -1.599556 -0.074518 -0.000003 0.000081 -0.000002 -44.370014 0.346960 0.148822 0.000002 0.000000 -0.000001 -44.423664 -3.044403 -0.074314 0.000000 -0.000002 -0.000004 -8.728671 10.710558 0.000007 -0.000000 -0.000000 0.000000 -0.000680 9.278137 -0.000000 0.000000 -0.000001 
0.000006 104.270477 1.554256 0.000010 0.000003 -0.000113 -0.000005 10.181587 0.131522 0.000001 -0.000003 0.000084 -0.000000 9.893967 -1.470711 0.000001 0.000000 -0.000000 -0.000000 9.220802 -1.370642 0.000000 -0.000000 -0.000000 0.000001 16.740433 -2.049030 0.000000 -0.000000 -0.000000 0.000000 9.617859 1.685014 0.000000 0.000000 0.000000 0.000002 22.037384 7.501101 0.000000 -0.000000 0.000000 -4.569968 11.014880 -2.160881 0.000008 0.000001 -0.000038 -10.592859 -0.524796 -2.231845 73.449915 41.138264 -31.280791 -27.841526 0.000007 0.000540 -47.753257 105.635911 60.531425 -28.328831 0.000022 0.000027 -0.000318 -0.000046 0.000011 -2.464415 -1.573745 2.682317 -49.585196 -168.108263 -14.458517 -3.215276 -1.872568 1.924621 151.106461 32.021358 10.112541 -2.654963 -1.527882 1.513052 145.043766 27.850166 -30.229143 -2.018826 -1.152001 1.108054 -0.000003 -0.000003 0.000002 -9.108366 -0.517557 2.260117 96.145465 15.500208 -17.285081 -3.700066 0.000323 0.001487 93.577082 12.956902 -13.759472 -2.850078 0.000356 -0.000259 93.664918 11.397606 -12.144553 -2.772181 -0.000015 -0.000015 -0.000001 -0.000001 0.000001 -9.532581 0.000269 0.000209 86.295315 15.396986 -14.575760 -3.700063 0.000342 0.003943 89.297518 10.083925 -9.870319 -2.950058 0.000333 -0.001816 93.198382 11.294699 -11.931440 -2.946624 0.000001 -0.000156 -0.000001 -0.000001 -0.000000 -9.103689 -0.042761 -1.864891 85.438447 17.435554 -16.076631 -3.379323 0.000331 -0.000833 88.263236 6.637136 -6.455537 -2.889741 0.000356 0.000613 95.968235 5.346339 -5.982814 -2.638817 -0.000005 0.000940 -0.000001 0.000001 0.000000 -8.076748 -0.486389 -3.806060 79.501845 18.380229 -15.199357 -3.600024 0.000268 -0.003555 82.912937 6.820653 -5.719322 -2.100023 0.000319 -0.005534 85.407609 3.824223 -3.332351 -2.115760 -0.000028 -0.003680 -0.000003 0.000002 -0.000000 4.570446 11.014691 -2.160851 -0.000018 0.000010 -0.000021 10.592536 -0.524537 -2.232397 75.861873 -67.296542 54.835580 27.841707 -0.000080 -0.000113 268.695134 -75.359014 283.374932 28.328831 -0.000012 0.000019 0.000023 -0.000089 0.000001 2.466169 -1.576141 2.681881 -30.280066 -22.993769 12.212143 3.217846 -1.871929 1.916586 121.591178 177.687016 195.947144 2.656065 -1.528735 1.514634 293.074511 8.256385 19.515940 2.020887 -1.154081 1.115146 0.000000 -0.000000 0.000001 9.109218 -0.517662 2.260026 206.669517 -6.990349 331.129347 3.699817 0.000295 -0.000162 25.126989 -167.284843 126.850751 2.849816 0.000337 0.000513 -157.201626 -13.225428 -59.794946 2.774888 -0.000030 -0.000026 -0.000000 -0.000000 -0.000000 9.533381 0.000386 0.000219 215.113270 -2.819789 351.124179 3.699943 0.000382 -0.000069 211.346462 -4.564056 -16.160231 2.949955 0.000350 0.000103 -145.979844 -5.909291 -19.159399 2.952872 -0.000030 0.000055 0.000001 -0.000000 0.000000 9.104481 -0.042696 -1.864871 220.887307 -4.797615 347.172232 3.149980 0.000379 0.000229 218.595082 -3.131157 -8.930513 2.949952 0.000342 0.000215 -143.542805 -2.573301 -7.806943 2.644325 0.000046 0.000050 -0.000000 0.000000 0.000000 8.077745 -0.486554 -3.806056 222.536907 -3.660088 349.540887 3.599980 0.000376 0.014935 399.006865 177.897208 184.687127 2.100026 0.000342 0.007897 -140.699602 2.894354 6.886812 2.125501 0.000002 0.007512 -0.000000 0.000000 -0.000002 -8.207786 -6.751667 -1.599560 -0.077001 -0.000003 0.000080 -0.000002 -44.370110 0.345938 0.153719 -0.000000 -0.000000 0.000000 -44.423679 -3.043532 -0.076700 0.000000 -0.000002 -0.000006 -8.728667 10.710559 -0.000009 -0.000000 -0.000000 -0.000001 -0.000679 9.278123 0.000000 -0.000000 -0.000000 8.207792 -6.751710 -1.599556 -0.074518 -0.000003 0.000081 -0.000002 -44.370014 0.346960 0.148822 0.000002 0.000000 -0.000001 -44.423664 -3.044403 -0.074314 0.000000 -0.000002 -0.000004 -8.728671 10.710558 0.000007 -0.000000 -0.000000 0.000000 -0.000680 9.278137 -0.000000 0.000000 -0.000001 
